<?xml version="1.0" encoding="UTF-8" standalone="no"?>
<svg
   enable-background="new 0 0 512 512"
   height="495.84232"
   version="1.1"
   viewBox="0 0 356.59293 495.84232"
   width="356.59293"
   xml:space="preserve"
   id="svg1422"
   sodipodi:docname="brush-icon.svg"
   inkscape:version="1.2.1 (9c6d41e4, 2022-07-14)"
   xmlns:inkscape="http://www.inkscape.org/namespaces/inkscape"
   xmlns:sodipodi="http://sodipodi.sourceforge.net/DTD/sodipodi-0.dtd"
   xmlns="http://www.w3.org/2000/svg"
   xmlns:svg="http://www.w3.org/2000/svg"><defs
     id="defs1426" /><sodipodi:namedview
     id="namedview1424"
     pagecolor="#ffffff"
     bordercolor="#000000"
     borderopacity="0.25"
     inkscape:showpageshadow="2"
     inkscape:pageopacity="0.0"
     inkscape:pagecheckerboard="0"
     inkscape:deskcolor="#d1d1d1"
     showgrid="false"
     inkscape:zoom="1.1328125"
     inkscape:cx="178.31724"
     inkscape:cy="247.17241"
     inkscape:window-width="1280"
     inkscape:window-height="800"
     inkscape:window-x="0"
     inkscape:window-y="0"
     inkscape:window-maximized="0"
     inkscape:current-layer="svg1422" /><g
     id="Layer_8"
     transform="translate(-77.703394,-8.418621)"><g
       id="g1419"><path
         d="M 423.142,11.872 C 400.406,36.541 265.549,264.51 211.478,330.963 c -27.055,33.241 -7.78,54.27 -7.78,54.27 9.553,-0.547 21.199,12.052 21.199,12.052 18.671,-0.793 42.557,-35.664 80.041,-121.676 50.346,-115.573 128.51,-259.583 128.51,-259.583 4.49,-14.211 -10.306,-4.154 -10.306,-4.154 z"
         id="path1413" /><path
         d="m 146.033,434.721 c -22.306,58.976 -68.862,48.658 -68.325,52.035 2.527,15.955 60.38,23.886 90.339,11.269 36.753,-15.475 41.902,-48.611 39.356,-64.586 -2.527,-15.956 -46.183,-38.852 -61.37,1.282 z"
         id="path1415" /><path
         d="m 218.182,420.718 c -3.272,5.63 -8.968,8.458 -12.703,6.279 l -19.746,-11.476 c -3.734,-2.169 -4.111,-8.497 -0.849,-14.126 l 7.412,-12.777 c 3.263,-5.63 8.958,-8.44 12.702,-6.271 l 19.756,11.466 c 3.734,2.169 4.111,8.507 0.83,14.126 z"
         id="path1417" /></g></g></svg>
