<?xml version="1.0" encoding="UTF-8" standalone="no"?>
<svg
   height="512"
   style="clip-rule:evenodd;fill-rule:evenodd;stroke-linejoin:round;stroke-miterlimit:2"
   version="1.1"
   viewBox="0 0 512 512"
   width="512"
   xml:space="preserve"
   id="svg134"
   sodipodi:docname="fb-icon.svg"
   inkscape:version="1.2.1 (9c6d41e4, 2022-07-14)"
   xmlns:inkscape="http://www.inkscape.org/namespaces/inkscape"
   xmlns:sodipodi="http://sodipodi.sourceforge.net/DTD/sodipodi-0.dtd"
   xmlns="http://www.w3.org/2000/svg"
   xmlns:svg="http://www.w3.org/2000/svg"><defs
     id="defs138" /><sodipodi:namedview
     id="namedview136"
     pagecolor="#ffffff"
     bordercolor="#000000"
     borderopacity="0.25"
     inkscape:showpageshadow="2"
     inkscape:pageopacity="0.0"
     inkscape:pagecheckerboard="0"
     inkscape:deskcolor="#d1d1d1"
     showgrid="false"
     inkscape:zoom="0.4609375"
     inkscape:cx="235.38983"
     inkscape:cy="256"
     inkscape:window-width="1280"
     inkscape:window-height="456"
     inkscape:window-x="0"
     inkscape:window-y="25"
     inkscape:window-maximized="0"
     inkscape:current-layer="svg134" /><path
     d="M 449.446,0 C 483.971,0 512,28.03 512,62.554 V 449.446 C 512,483.97 483.97,512 449.446,512 H 342.978 V 319.085 h 66.6 l 12.672,-82.621 h -79.272 v -53.617 c 0,-22.603 11.073,-44.636 46.58,-44.636 H 425.6 v -70.34 c 0,0 -32.71,-5.582 -63.982,-5.582 -65.288,0 -107.96,39.569 -107.96,111.204 v 62.971 h -72.573 v 82.621 h 72.573 V 512 H 62.554 C 28.03,512 0,483.97 0,449.446 V 62.554 C 0,28.03 28.029,0 62.554,0 Z"
     id="path132" /></svg>
