<?xml version="1.0" standalone="no"?>
<!DOCTYPE svg PUBLIC "-//W3C//DTD SVG 20010904//EN"
 "http://www.w3.org/TR/2001/REC-SVG-20010904/DTD/svg10.dtd">
<svg version="1.0" xmlns="http://www.w3.org/2000/svg"
 width="700.000000pt" height="700.000000pt" viewBox="0 0 700.000000 700.000000"
 preserveAspectRatio="xMidYMid meet">
<metadata>
Created by potrace 1.14, written by Peter Selinger 2001-2017
</metadata>
<g transform="translate(0.000000,700.000000) scale(0.100000,-0.100000)"
fill="#000000" stroke="none">
<path d="M3448 6648 c-99 -13 -142 -41 -278 -178 -105 -106 -306 -315 -491
-511 -49 -52 -329 -346 -399 -419 -153 -160 -374 -391 -405 -425 -21 -22 -85
-90 -144 -150 -90 -94 -340 -356 -490 -514 -24 -25 -87 -91 -140 -147 -53 -55
-173 -181 -267 -280 -94 -98 -206 -215 -248 -259 -48 -50 -89 -104 -109 -145
-30 -60 -32 -72 -32 -165 0 -176 -44 -122 762 -927 1794 -1792 2143 -2136
2191 -2158 69 -33 100 -40 167 -41 79 0 107 7 169 38 58 29 94 65 611 608 166
175 238 250 399 419 215 225 209 219 406 426 85 89 180 188 210 220 30 32 134
140 230 241 96 101 213 223 260 272 47 49 110 115 140 147 111 117 367 386
453 474 144 150 182 223 182 351 -1 85 -25 164 -70 225 -19 25 -662 671 -1429
1435 -1210 1205 -1404 1394 -1458 1423 -74 38 -141 51 -220 40z"/>
</g>
</svg>
